<svg width="1440" height="580" viewBox="0 0 1440 580" fill="none" xmlns="http://www.w3.org/2000/svg">
<path d="M-70.1251 56.1159C681.094 76.2972 992.404 -0.000576093 1425.51 3.2624e-09C1858.61 0.0005761 1425.51 580 1425.51 580H-70.1251C-70.1251 580 -821.344 35.9345 -70.1251 56.1159Z" fill="#D6DEC1"/>
<path d="M-53.7192 147.937C896.382 230.33 1014.93 161.87 1478.83 182.368C1942.72 202.866 1478.83 580 1478.83 580H-18.3194C-18.3194 580 -1003.82 65.5431 -53.7192 147.937Z" fill="#ADB88F"/>
<path d="M-18.2037 358.223C447.088 392.446 1045 324 1478.39 324C1911.77 324 1478.39 580 1478.39 580H-18.2037C-18.2037 580 -483.495 324 -18.2037 358.223Z" fill="#889466"/>
</svg>
