<svg width="224" height="223" viewBox="0 0 224 223" fill="none" xmlns="http://www.w3.org/2000/svg">
<g clip-path="url(#clip0_21_165)">
<path d="M112.46 131.853C111.633 130.875 110.863 129.734 110.226 128.645C110.283 126.513 110.235 121.234 110.252 119.022C110.252 116.911 110.252 111.442 110.252 109.398C110.903 108.319 111.655 107.182 112.465 106.19C113.274 107.182 114.026 108.319 114.677 109.398C114.677 111.42 114.677 116.929 114.677 119.022C114.686 121.261 114.646 126.477 114.699 128.645C114.062 129.734 113.292 130.875 112.465 131.853H112.46Z" fill="white"/>
<path d="M112.354 184.063C164.83 184.063 207.368 141.521 207.368 89.0451C207.368 64.6435 198.169 42.3965 183.05 25.5698C163.763 9.60139 139.003 0 112 0C84.9967 0 62.5507 8.72974 43.6797 23.384C27.3662 40.4453 17.3445 63.5727 17.3445 89.0451C17.3445 141.521 59.8826 184.063 112.358 184.063H112.354ZM112 10.8403C146.684 10.8403 174.803 40.901 174.803 77.9836C174.803 115.066 146.684 145.127 112 145.127C77.3156 145.127 49.1972 115.066 49.1972 77.9836C49.1972 40.901 77.3156 10.8403 112 10.8403Z" fill="#68714F"/>
<path d="M112 145.127C146.684 145.127 174.803 115.066 174.803 77.9837C174.803 40.9011 146.684 10.8403 112 10.8403C77.3155 10.8403 49.1971 40.9011 49.1971 77.9837C49.1971 115.066 77.3155 145.127 112 145.127ZM110.858 29.4237C129.858 29.4237 145.26 51.1662 145.26 77.9837C145.26 104.801 129.858 126.544 110.858 126.544C91.8592 126.544 76.4571 104.801 76.4571 77.9837C76.4571 51.1662 91.8592 29.4237 110.858 29.4237Z" fill="#8B9769"/>
<path d="M110.858 126.544C129.858 126.544 145.26 104.801 145.26 77.9836C145.26 51.1661 129.858 29.4236 110.858 29.4236C91.8592 29.4236 76.4572 51.1661 76.4572 77.9836C76.4572 104.801 91.8592 126.544 110.858 126.544ZM111.73 63.7143C121.584 63.7143 129.57 76.0943 129.57 91.368C129.57 106.642 121.584 119.022 111.73 119.022C101.876 119.022 93.8901 106.642 93.8901 91.368C93.8901 76.0943 101.876 63.7143 111.73 63.7143Z" fill="#B4BF99"/>
<path d="M111.73 119.022C121.584 119.022 129.57 106.642 129.57 91.368C129.57 76.0943 121.584 63.7142 111.73 63.7142C101.877 63.7142 93.8901 76.0943 93.8901 91.368C93.8901 106.642 101.877 119.022 111.73 119.022ZM112.018 84.0674C116.907 84.0674 120.867 90.2088 120.867 97.7837C120.867 105.359 116.907 111.5 112.018 111.5C107.129 111.5 103.169 105.359 103.169 97.7837C103.169 90.2088 107.129 84.0674 112.018 84.0674Z" fill="#CFD7B9"/>
<path d="M112.018 111.5C116.905 111.5 120.867 105.359 120.867 97.7838C120.867 90.2085 116.905 84.0675 112.018 84.0675C107.13 84.0675 103.168 90.2085 103.168 97.7838C103.168 105.359 107.13 111.5 112.018 111.5Z" fill="#F6F7F0"/>
<path d="M93.3237 182.156C49.9671 173.343 17.34 135.004 17.34 89.0451C17.34 63.5727 27.3618 40.4453 43.6753 23.384C17.4064 43.7859 0.5 75.6651 0.5 111.5C0.5 166.861 40.848 212.788 93.7397 221.504C93.4742 220.876 93.3282 220.186 93.3282 219.46V182.156H93.3237Z" fill="#46512C"/>
<path d="M223.5 111.5C223.5 76.9218 207.757 46.0248 183.055 25.5698C198.169 42.3966 207.372 64.6435 207.372 89.0452C207.372 135.008 174.741 173.347 131.38 182.157V219.46C131.38 220.137 131.247 220.783 131.012 221.381C183.537 212.359 223.5 166.6 223.5 111.5Z" fill="#46512C"/>
<path d="M126.066 123.004H98.6333C95.713 123.004 93.3237 125.393 93.3237 128.314V219.46C93.3237 220.182 93.4697 220.872 93.7352 221.505C99.6775 222.482 105.779 223 111.996 223C118.212 223 124.827 222.443 131.008 221.381C131.243 220.783 131.375 220.137 131.375 219.46V128.314C131.375 125.393 128.986 123.004 126.066 123.004Z" fill="white"/>
<path d="M112.349 128.756C111.619 128.03 110.911 127.154 110.341 126.322C110.381 124.694 110.354 120.708 110.363 119.022C110.363 117.425 110.363 113.27 110.363 111.721C110.969 110.912 111.553 110.097 112.354 109.288C113.155 110.097 113.739 110.912 114.345 111.721C114.345 113.248 114.345 117.438 114.345 119.022C114.349 120.725 114.323 124.672 114.363 126.322C113.787 127.154 113.084 128.03 112.354 128.756H112.349Z" fill="white"/>
</g>
<defs>
<clipPath id="clip0_21_165">
<rect width="223" height="223" fill="white" transform="translate(0.5)"/>
</clipPath>
</defs>
</svg>
